<?xml version="1.0" encoding="utf-8"?>
<!-- Generator: Adobe Illustrator 25.2.3, SVG Export Plug-In . SVG Version: 6.00 Build 0)  -->
<svg version="1.1" id="Capa_1" xmlns="http://www.w3.org/2000/svg" xmlns:xlink="http://www.w3.org/1999/xlink" x="0px" y="0px"
	 viewBox="0 0 510.77 200" style="enable-background:new 0 0 510.77 200;" xml:space="preserve">
<g>
	<path d="M32.91,25.19c-4.56,0-8.16-3.6-8.16-8.16s3.6-8.4,8.16-8.4s8.4,3.84,8.4,8.4S37.47,25.19,32.91,25.19z M40.35,158.63
		c-8.4,0-15.12-6.72-15.12-14.88V44.63h0.24c8.16,0,15.36,6.48,15.36,14.88v99.12H40.35z"/>
	<path d="M176.91,129.11c-4.56,6.72-13.92,8.64-21.36,5.04c-0.96-0.48-1.68-1.2-2.4-1.68c10.8-7.92,16.8-19.92,16.8-32.88
		c0-23.28-20.16-42-45.12-42c-24.72,0-45.12,18.72-45.12,42c0,23.28,18.72,42,41.76,42h35.52c12.72,0,25.44,8.64,25.44,24.72
		c0,13.68-11.04,24.72-24.48,24.72c0,0,0,0-52.08,0c0-8.4,6.48-15.6,14.88-15.6h37.2c5.04,0,9.12-4.08,9.12-9.12
		c0-8.4-7.68-9.12-10.08-9.12h-35.52c-31.44,0-57.12-25.92-57.12-57.6c0-31.68,27.12-57.6,60.48-57.6s60.72,25.92,60.72,57.6
		C185.55,110.15,182.67,120.47,176.91,129.11z"/>
	<path d="M355.23,158.63c-8.4,0-15.36-6.72-15.36-15.36v-57.6c0-14.16-11.52-25.68-25.68-25.68c-14.4,0-25.92,11.52-25.92,25.68
		v72.96c-8.4,0-15.36-6.96-15.36-15.6V85.67c0-14.16-11.52-25.68-25.68-25.68c-14.16,0-25.92,11.52-25.92,25.68v57.36
		c0,8.64-6.72,15.6-15.36,15.6V85.67c0-22.56,18.48-41.04,41.28-41.04c13.68,0,25.92,6.72,33.36,17.28
		c7.44-10.56,19.68-17.28,33.6-17.28c22.56,0,41.04,18.48,41.04,41.04V158.63z"/>
	<path d="M478.34,109.43c-20.4,0-74.88,0-86.4,0c3.84,19.2,21.6,33.84,42.96,33.84c11.04,0,21.6-4.08,29.52-10.8
		c5.76-5.52,14.64-6,21.12-1.2c-10.56,16.56-29.76,27.36-50.64,27.36c-32.64,0-59.04-25.44-59.04-56.88
		c0-31.68,26.4-57.12,59.04-57.12c30.24,0,55.68,21.84,58.56,50.16C494.43,103.19,486.51,109.19,478.34,109.43z M434.9,59.99
		c-21.36,0-39.12,14.64-42.96,34.08h82.56c1.44,0,2.88-1.2,2.64-2.64C472.34,73.43,455.3,59.99,434.9,59.99z"/>
</g>
</svg>
